<?xml version="1.0" encoding="UTF-8" standalone="no"?>
<!-- Generator: Adobe Illustrator 17.0.2, SVG Export Plug-In . SVG Version: 6.00 Build 0)  -->
<!DOCTYPE svg  PUBLIC '-//W3C//DTD SVG 1.1//EN'  'http://www.w3.org/Graphics/SVG/1.1/DTD/svg11.dtd'>
<svg id="Layer_1" xmlns="http://www.w3.org/2000/svg" xml:space="preserve" height="16px" viewBox="0 0 120 16" width="120px" version="1.1" y="0px" x="0px" xmlns:xlink="http://www.w3.org/1999/xlink" enable-background="new 0 0 120 16">
<g fill="#fff">
	<path d="m7.054 15.665c-1.051 0-2.011-0.173-2.877-0.519-0.867-0.347-1.61-0.855-2.229-1.525-0.62-0.672-1.1-1.49-1.438-2.456-0.342-0.966-0.51-2.077-0.51-3.333 0-1.254 0.186-2.369 0.562-3.341 0.375-0.975 0.887-1.793 1.535-2.457 0.652-0.663 1.402-1.169 2.253-1.515 0.85-0.345 1.752-0.519 2.704-0.519 0.65 0 1.23 0.043 1.742 0.13 0.509 0.086 0.956 0.188 1.332 0.303 0.374 0.115 0.677 0.231 0.907 0.346s0.39 0.201 0.476 0.26l-0.627 1.731c-0.131-0.086-0.317-0.181-0.563-0.282s-0.529-0.202-0.854-0.302c-0.325-0.101-0.682-0.185-1.073-0.25-0.39-0.064-0.798-0.098-1.232-0.098-0.735 0-1.406 0.138-2.012 0.411-0.606 0.275-1.125 0.672-1.558 1.191-0.433 0.52-0.768 1.15-1.007 1.893-0.237 0.743-0.357 1.577-0.357 2.499 0 0.896 0.108 1.71 0.316 2.445 0.208 0.736 0.524 1.367 0.95 1.894 0.426 0.526 0.953 0.935 1.581 1.223 0.626 0.288 1.364 0.433 2.22 0.433 0.95 0 1.74-0.101 2.366-0.303 0.628-0.202 1.101-0.382 1.418-0.541l0.542 1.731c-0.101 0.073-0.283 0.162-0.542 0.272-0.259 0.107-0.584 0.212-0.972 0.312-0.391 0.102-0.845 0.189-1.363 0.26-0.523 0.071-1.084 0.107-1.69 0.107z"/>
	<path d="m20.381 0.346c0.52 1.082 1.018 2.175 1.496 3.278 0.474 1.104 0.954 2.261 1.437 3.474 0.482 1.211 0.978 2.492 1.482 3.84 0.504 1.349 1.045 2.817 1.622 4.404h-2.29c-0.248-0.65-0.479-1.291-0.694-1.926-0.217-0.635-0.44-1.277-0.672-1.925h-6.792l-1.363 3.851h-2.187c0.576-1.587 1.116-3.054 1.624-4.404 0.503-1.348 0.999-2.628 1.482-3.84 0.482-1.212 0.962-2.37 1.437-3.474 0.476-1.104 0.975-2.196 1.496-3.277h1.923v-0.001zm-1.018 2.402c-0.503 1.082-0.983 2.207-1.438 3.375-0.452 1.169-0.904 2.388-1.351 3.658h5.581c-0.46-1.255-0.918-2.47-1.372-3.647-0.456-1.175-0.929-2.304-1.42-3.386z"/>
	<path d="m38.817 15.342c-0.317-0.534-0.682-1.133-1.093-1.797s-0.855-1.351-1.331-2.066c-0.475-0.713-0.97-1.439-1.482-2.174-0.513-0.736-1.022-1.447-1.527-2.132-0.505-0.686-0.995-1.331-1.469-1.936-0.478-0.607-0.917-1.14-1.321-1.602v11.706h-2.056v-14.995h1.665c0.68 0.722 1.403 1.562 2.176 2.521 0.77 0.959 1.537 1.947 2.293 2.964s1.471 2.017 2.142 2.997c0.672 0.981 1.238 1.853 1.698 2.617v-11.1h2.057v14.995l-1.752 0.002z"/>
	<path d="m71.576 15.342c-0.317-0.534-0.682-1.133-1.093-1.797s-0.854-1.351-1.332-2.066c-0.474-0.713-0.969-1.439-1.48-2.174-0.513-0.736-1.021-1.447-1.527-2.132-0.503-0.686-0.994-1.331-1.471-1.936-0.476-0.607-0.916-1.14-1.32-1.602v11.706h-2.055v-14.995h1.666c0.677 0.722 1.402 1.562 2.174 2.521s1.536 1.947 2.294 2.964c0.757 1.017 1.47 2.017 2.142 2.997 0.669 0.981 1.236 1.853 1.699 2.617v-11.1h2.054v14.995l-1.751 0.002z"/>
	<path d="m77.137 0.346h2.098v14.995h-2.098v-14.995z"/>
	<path d="m89.492 15.665c-1.053 0-2.014-0.173-2.878-0.519-0.864-0.347-1.609-0.855-2.228-1.525-0.62-0.672-1.101-1.49-1.439-2.456-0.34-0.966-0.509-2.077-0.509-3.333 0-1.254 0.19-2.369 0.562-3.341 0.377-0.975 0.885-1.793 1.536-2.457 0.65-0.662 1.398-1.168 2.252-1.515 0.85-0.345 1.751-0.519 2.704-0.519 0.649 0 1.229 0.043 1.742 0.13 0.51 0.086 0.955 0.188 1.331 0.303 0.375 0.115 0.678 0.231 0.908 0.346s0.39 0.201 0.475 0.26l-0.627 1.731c-0.13-0.086-0.317-0.181-0.564-0.282-0.244-0.101-0.529-0.202-0.854-0.302-0.323-0.101-0.68-0.185-1.067-0.25-0.393-0.064-0.803-0.098-1.236-0.098-0.735 0-1.406 0.138-2.012 0.411-0.606 0.274-1.125 0.671-1.559 1.19-0.433 0.52-0.768 1.15-1.007 1.893-0.237 0.743-0.355 1.577-0.355 2.498 0 0.896 0.103 1.71 0.312 2.445 0.209 0.736 0.527 1.367 0.951 1.894 0.427 0.526 0.953 0.935 1.58 1.223 0.628 0.288 1.368 0.433 2.218 0.433 0.952 0 1.74-0.101 2.368-0.303s1.101-0.382 1.416-0.541l0.542 1.731c-0.101 0.073-0.282 0.162-0.542 0.272-0.257 0.107-0.583 0.212-0.97 0.312-0.391 0.102-0.845 0.189-1.365 0.26-0.517 0.073-1.08 0.109-1.685 0.109z"/>
	<path d="m102.82 0.346c0.521 1.082 1.018 2.175 1.495 3.278 0.476 1.104 0.955 2.261 1.439 3.474 0.482 1.211 0.976 2.492 1.482 3.84 0.505 1.349 1.045 2.817 1.623 4.404h-2.295c-0.244-0.65-0.475-1.291-0.691-1.926-0.217-0.635-0.44-1.277-0.671-1.925h-6.793l-1.362 3.851h-2.187c0.577-1.587 1.117-3.054 1.623-4.404 0.503-1.348 0.998-2.628 1.482-3.84 0.482-1.212 0.963-2.37 1.439-3.474s0.976-2.196 1.493-3.277h1.925v-0.001zm-1.02 2.402c-0.503 1.082-0.983 2.207-1.437 3.375-0.45 1.169-0.9 2.388-1.349 3.657h5.582c-0.461-1.255-0.919-2.47-1.373-3.647-0.45-1.174-0.93-2.303-1.42-3.385z"/>
	<path d="m120 13.588v1.754h-9.023v-14.996h2.099v13.242h6.92z"/>
	<path d="m50.934 12.821c-2.755 0-4.987-2.233-4.987-4.989 0-2.754 2.232-4.986 4.987-4.986s4.987 2.232 4.987 4.986c0 2.756-2.232 4.989-4.987 4.989z"/>
	<path d="m58.768 7.833c0 4.325-3.508 7.832-7.833 7.832-4.327 0-7.833-3.507-7.833-7.832 0-4.326 3.505-7.833 7.832-7.833 4.326 0 7.834 3.507 7.834 7.833zm-7.834-5.928c-3.275 0-5.928 2.655-5.928 5.928 0 3.274 2.653 5.927 5.928 5.927 3.276 0 5.927-2.652 5.927-5.927 0-3.273-2.651-5.928-5.927-5.928z"/>
</g>
</svg>
