<?xml version="1.0" encoding="utf-8"?>
<!-- Generator: Adobe Illustrator 24.2.1, SVG Export Plug-In . SVG Version: 6.00 Build 0)  -->
<svg version="1.1" id="Layer_1" xmlns="http://www.w3.org/2000/svg" xmlns:xlink="http://www.w3.org/1999/xlink" x="0px" y="0px"
	 viewBox="0 0 276 85" style="enable-background:new 0 0 276 85;" xml:space="preserve">
<style type="text/css">
	.st0{fill:#FFFFFF;}
	.st1{stroke:#000000;stroke-width:11;stroke-miterlimit:10;}
	.st2{clip-path:url(#SVGID_2_);}
	.st3{fill:#A4C2DB;}
	.st4{fill:#0075B2;}
</style>
<circle class="st0" cx="42.5" cy="42.8" r="35.8"/>
<path class="st1" d="M29.3,24.1"/>
<g>
	<path class="st0" d="M42.6,75.8c-2.9,0-5.8-0.4-8.7-1.2c-8.6-2.3-15.8-7.8-20.2-15.5C9.2,51.5,8,42.5,10.3,33.9s7.8-15.8,15.5-20.2
		l0,0c7.7-4.5,16.7-5.6,25.3-3.3c8.6,2.3,15.8,7.8,20.2,15.5c9.2,15.9,3.7,36.3-12.2,45.5C54,74.3,48.3,75.8,42.6,75.8z M42.4,10.4
		c-5.4,0-10.9,1.4-16,4.3C19,19,13.7,25.9,11.5,34.2s-1.1,16.9,3.2,24.3s11.2,12.7,19.5,14.9s16.9,1.1,24.3-3.2
		c15.3-8.8,20.6-28.5,11.7-43.8C64.3,16.2,53.5,10.4,42.4,10.4z"/>
	<g>
		<g>
			<defs>
				<circle id="SVGID_1_" cx="42.5" cy="42.5" r="32.7"/>
			</defs>
			<clipPath id="SVGID_2_">
				<use xlink:href="#SVGID_1_"  style="overflow:visible;"/>
			</clipPath>
			<g class="st2">
				<g>
					<rect x="-4.6" y="37.2" class="st3" width="94.8" height="0.6"/>
					<rect x="-4.6" y="26.9" class="st3" width="94.8" height="0.6"/>
					<rect x="-4.6" y="16.7" class="st3" width="94.8" height="0.6"/>
					<rect x="-4.6" y="6.4" class="st3" width="94.8" height="0.6"/>
					<rect x="-4.6" y="-3.8" class="st3" width="94.8" height="0.6"/>
					<rect x="-4.6" y="68" class="st3" width="94.8" height="0.6"/>
					<rect x="-4.6" y="57.7" class="st3" width="94.8" height="0.6"/>
					<rect x="-4.6" y="47.5" class="st3" width="94.8" height="0.6"/>
				</g>
				<g>
					
						<rect x="-0.7" y="39.8" transform="matrix(0.4999 -0.8661 0.8661 0.4999 -11.378 60.4695)" class="st3" width="94.8" height="0.6"/>
					
						<rect x="-9.6" y="34.6" transform="matrix(0.4999 -0.8661 0.8661 0.4999 -11.3791 50.2151)" class="st3" width="94.8" height="0.6"/>
					
						<rect x="-18.5" y="29.5" transform="matrix(0.4999 -0.8661 0.8661 0.4999 -11.3802 39.9605)" class="st3" width="94.8" height="0.6"/>
					
						<rect x="-27.3" y="24.4" transform="matrix(0.4999 -0.8661 0.8661 0.4999 -11.3815 29.7062)" class="st3" width="94.8" height="0.6"/>
					
						<rect x="-36.2" y="19.3" transform="matrix(0.4999 -0.8661 0.8661 0.4999 -11.3825 19.4467)" class="st3" width="94.8" height="0.6"/>
					
						<rect x="25.9" y="55.1" transform="matrix(0.4999 -0.8661 0.8661 0.4999 -11.3746 91.2328)" class="st3" width="94.8" height="0.6"/>
					
						<rect x="17.1" y="50" transform="matrix(0.4999 -0.8661 0.8661 0.4999 -11.3757 80.9786)" class="st3" width="94.8" height="0.6"/>
					
						<rect x="8.2" y="44.9" transform="matrix(0.4999 -0.8661 0.8661 0.4999 -11.3768 70.724)" class="st3" width="94.8" height="0.6"/>
				</g>
				<g>
					<rect x="46.9" y="-11.5" transform="matrix(0.866 -0.5 0.5 0.866 -11.6302 28.4291)" class="st3" width="0.6" height="94.7"/>
					<rect x="38" y="-6.3" transform="matrix(0.866 -0.5 0.5 0.866 -15.3833 24.6756)" class="st3" width="0.6" height="94.7"/>
					<rect x="29.2" y="-1.2" transform="matrix(0.866 -0.5 0.5 0.866 -19.1365 20.922)" class="st3" width="0.6" height="94.7"/>
					<rect x="20.3" y="3.9" transform="matrix(0.866 -0.5 0.5 0.866 -22.8914 17.1702)" class="st3" width="0.6" height="94.7"/>
					<rect x="11.4" y="9.1" transform="matrix(0.866 -0.5 0.5 0.866 -26.6446 13.4166)" class="st3" width="0.6" height="94.7"/>
					<rect x="73.6" y="-26.8" transform="matrix(0.866 -0.5 0.5 0.866 -0.3708 39.6899)" class="st3" width="0.6" height="94.7"/>
					<rect x="64.7" y="-21.7" transform="matrix(0.866 -0.5 0.5 0.866 -4.1239 35.9363)" class="st3" width="0.6" height="94.7"/>
					<rect x="55.8" y="-16.6" transform="matrix(0.866 -0.5 0.5 0.866 -7.8771 32.1828)" class="st3" width="0.6" height="94.7"/>
				</g>
			</g>
		</g>
	</g>
	<g>
		<g>
			<polygon class="st4" points="24.5,17 54.1,68.3 71.8,37.5 65.9,27.3 54.1,47.8 36.3,17 			"/>
			<path class="st4" d="M54.1,68.9L23.9,16.7h12.6l17.6,30.4l11.8-20.5l6.3,10.9L54.1,68.9z M25,17.3l29,50.3l17.4-30.1l-5.6-9.6
				L54.1,48.4L36.1,17.3H25z"/>
		</g>
	</g>
	<path class="st4" d="M42.5,80C21.8,80,5,63.2,5,42.5S21.8,5,42.5,5S80,21.8,80,42.5S63.2,80,42.5,80z M42.5,8.6
		C23.8,8.6,8.6,23.8,8.6,42.5s15.2,33.9,33.9,33.9s33.9-15.2,33.9-33.9S61.2,8.6,42.5,8.6z"/>
	<g>
		<path class="st4" d="M85.1,22.3c0.3-1.6,0.8-3,1.5-4c0.7-1,1.6-1.8,2.8-2.3c1.1-0.5,2.5-0.7,4.2-0.7c1.7,0,3.1,0.2,4.2,0.7
			c1.1,0.5,2.1,1.2,2.8,2.3c0.7,1,1.2,2.4,1.5,4c0.3,1.6,0.5,3.6,0.5,6s-0.2,4.3-0.5,6c-0.3,1.6-0.8,3-1.5,4c-0.7,1-1.6,1.8-2.8,2.2
			c-1.1,0.4-2.5,0.7-4.2,0.7c-1.7,0-3.1-0.2-4.2-0.7c-1.1-0.4-2.1-1.2-2.8-2.2c-0.7-1-1.2-2.4-1.5-4c-0.3-1.6-0.5-3.6-0.5-6
			C84.7,26,84.8,24,85.1,22.3z M91.5,32.5c0,1.1,0.1,2,0.3,2.6c0.2,0.7,0.4,1.1,0.7,1.4c0.3,0.3,0.7,0.4,1.2,0.4
			c0.5,0,0.9-0.1,1.2-0.4c0.3-0.3,0.5-0.7,0.7-1.4c0.2-0.7,0.2-1.5,0.3-2.6c0-1.1,0.1-2.5,0.1-4.2s0-3.1-0.1-4.2
			c0-1.1-0.1-2-0.3-2.6c-0.2-0.7-0.4-1.1-0.7-1.4c-0.3-0.3-0.7-0.4-1.2-0.4c-0.5,0-0.9,0.1-1.2,0.4c-0.3,0.3-0.5,0.7-0.7,1.4
			c-0.2,0.7-0.2,1.5-0.3,2.6c0,1.1-0.1,2.5-0.1,4.2S91.4,31.4,91.5,32.5z"/>
		<path class="st4" d="M114,15.8l2.6,14.8h0.1l2.6-14.8h9.3v25h-6.1V22.2h-0.1L119,40.8h-4.7l-3.5-18.7h-0.1v18.7h-6.1v-25H114z"/>
		<path class="st4" d="M138.8,15.8l4.2,15.4h0.1V15.8h6.1v25H142l-4.3-15.5h-0.1v15.5h-6.1v-25H138.8z"/>
		<path class="st4" d="M158.5,15.8v25H152v-25H158.5z"/>
		<path class="st4" d="M166.3,15.8l2.6,18.9h0.1l2.6-18.9h6.9l-5.4,25h-8.4l-5.3-25C159.4,15.8,166.3,15.8,166.3,15.8z"/>
		<path class="st4" d="M194.4,15.8v5.3h-8.3v4.3h7.8v5.1h-7.8v5h8.6v5.3h-15.1v-25H194.4z"/>
		<path class="st4" d="M206.7,20.5c-0.3-0.5-0.7-0.8-1.4-0.8c-0.5,0-0.9,0.1-1.2,0.4c-0.3,0.3-0.5,0.7-0.7,1.4
			c-0.2,0.7-0.2,1.5-0.3,2.6c0,1.1-0.1,2.5-0.1,4.2s0,3.1,0.1,4.2c0,1.1,0.1,2,0.3,2.6c0.2,0.7,0.4,1.1,0.7,1.4
			c0.3,0.3,0.7,0.4,1.2,0.4c0.4,0,0.7-0.1,1-0.3c0.3-0.2,0.5-0.5,0.6-1c0.1-0.5,0.2-1.1,0.3-1.9c0.1-0.8,0.1-1.8,0.1-3h6.3v1.9
			c0,1.8-0.2,3.2-0.7,4.3c-0.5,1.1-1.1,2-1.9,2.6c-0.8,0.6-1.7,1.1-2.6,1.3c-1,0.2-2,0.3-3.1,0.3c-1.8,0-3.3-0.2-4.5-0.7
			c-1.2-0.4-2.1-1.2-2.7-2.2c-0.7-1-1.1-2.4-1.3-4c-0.2-1.6-0.4-3.6-0.4-6c0-2.4,0.1-4.4,0.4-6.1c0.3-1.7,0.8-3,1.5-4
			c0.7-1,1.6-1.8,2.8-2.2c1.1-0.5,2.6-0.7,4.2-0.7c1.5,0,2.7,0.2,3.7,0.6c1,0.4,1.9,0.9,2.5,1.6c0.6,0.7,1.1,1.5,1.4,2.5
			c0.3,1,0.4,2.1,0.4,3.3v1.6h-6.3v-1.4C207.1,22,207,21,206.7,20.5z"/>
		<path class="st4" d="M214.4,21.3v-5.5h16.3v5.5h-4.9v19.5h-6.5V21.3H214.4z"/>
		<path class="st4" d="M231.9,22.3c0.3-1.6,0.8-3,1.5-4c0.7-1,1.6-1.8,2.8-2.3c1.1-0.5,2.5-0.7,4.2-0.7c1.7,0,3.1,0.2,4.2,0.7
			c1.1,0.5,2.1,1.2,2.8,2.3s1.2,2.4,1.5,4c0.3,1.6,0.5,3.6,0.5,6s-0.2,4.3-0.5,6c-0.3,1.6-0.8,3-1.5,4c-0.7,1-1.6,1.8-2.8,2.2
			c-1.1,0.4-2.5,0.7-4.2,0.7c-1.7,0-3.1-0.2-4.2-0.7c-1.1-0.4-2.1-1.2-2.8-2.2s-1.2-2.4-1.5-4c-0.3-1.6-0.5-3.6-0.5-6
			C231.4,26,231.6,24,231.9,22.3z M238.2,32.5c0,1.1,0.1,2,0.3,2.6c0.2,0.7,0.4,1.1,0.7,1.4c0.3,0.3,0.7,0.4,1.2,0.4
			c0.5,0,0.9-0.1,1.2-0.4c0.3-0.3,0.5-0.7,0.7-1.4c0.2-0.7,0.2-1.5,0.3-2.6c0-1.1,0.1-2.5,0.1-4.2s0-3.1-0.1-4.2
			c0-1.1-0.1-2-0.3-2.6c-0.2-0.7-0.4-1.1-0.7-1.4c-0.3-0.3-0.7-0.4-1.2-0.4c-0.5,0-0.9,0.1-1.2,0.4c-0.3,0.3-0.5,0.7-0.7,1.4
			c-0.2,0.7-0.2,1.5-0.3,2.6c0,1.1-0.1,2.5-0.1,4.2S238.2,31.4,238.2,32.5z"/>
		<path class="st4" d="M261.8,15.8c1.2,0,2.3,0.2,3.2,0.5c0.9,0.3,1.6,0.8,2.1,1.4c0.5,0.6,0.9,1.3,1.2,2.1c0.2,0.8,0.4,1.7,0.4,2.7
			c0,1.7-0.3,3-1,4.1c-0.7,1-1.8,1.7-3.3,1.9v0.1c1.6,0.1,2.6,0.7,3.2,1.6c0.6,1,0.9,2.3,0.9,4v2.1c0,0.3,0,0.7,0,1c0,0.3,0,0.7,0,1
			c0,0.3,0.1,0.6,0.1,0.9c0,0.3,0.1,0.5,0.2,0.6c0.1,0.1,0.2,0.3,0.3,0.4c0.1,0.1,0.2,0.2,0.5,0.4v0.4h-6.9
			c-0.2-0.3-0.3-0.7-0.4-1.2s-0.1-0.9-0.2-1.3c0-0.4-0.1-0.9-0.1-1.3c0-0.4,0-0.7,0-1v-1.7c0-0.7,0-1.3-0.1-1.8
			c-0.1-0.5-0.2-0.8-0.4-1.1c-0.2-0.3-0.4-0.5-0.7-0.6c-0.3-0.1-0.6-0.2-1-0.2h-1.7v10h-6.5v-25H261.8z M259.5,26.4
			c0.9,0,1.6-0.3,2.1-0.8c0.4-0.5,0.7-1.3,0.7-2.2c0-1.1-0.2-1.8-0.6-2.2c-0.4-0.4-1.1-0.7-2.1-0.7h-1.3v5.9H259.5z"/>
	</g>
	<g>
		<path d="M88.1,62.8c0.4,0.9,1,1.6,1.7,2.1c0.7,0.5,1.6,0.9,2.6,1.1c1,0.2,2,0.3,3.2,0.3c0.6,0,1.3-0.1,2.1-0.3s1.5-0.5,2.1-0.9
			c0.7-0.4,1.2-0.9,1.6-1.6c0.4-0.6,0.7-1.4,0.7-2.3c0-0.7-0.2-1.3-0.5-1.8s-0.7-0.9-1.2-1.3c-0.5-0.4-1-0.6-1.6-0.9
			c-0.6-0.2-1.2-0.4-1.8-0.5l-5.5-1.4c-0.7-0.2-1.4-0.4-2.1-0.7c-0.7-0.3-1.3-0.7-1.8-1.1c-0.5-0.5-0.9-1-1.2-1.7
			c-0.3-0.7-0.5-1.5-0.5-2.5c0-0.6,0.1-1.3,0.3-2.1c0.2-0.8,0.7-1.6,1.3-2.3c0.6-0.7,1.5-1.3,2.6-1.8c1.1-0.5,2.5-0.8,4.3-0.8
			c1.2,0,2.4,0.2,3.5,0.5c1.1,0.3,2.1,0.8,2.9,1.5c0.8,0.7,1.5,1.5,2,2.4c0.5,1,0.7,2.1,0.7,3.4h-2.4c0-1-0.3-1.8-0.6-2.5
			c-0.4-0.7-0.9-1.3-1.5-1.8c-0.6-0.5-1.3-0.8-2.1-1.1c-0.8-0.2-1.6-0.4-2.5-0.4c-0.8,0-1.6,0.1-2.3,0.3c-0.7,0.2-1.4,0.5-2,0.8
			c-0.6,0.4-1,0.9-1.4,1.5c-0.3,0.6-0.5,1.4-0.5,2.3c0,0.6,0.1,1.1,0.3,1.5c0.2,0.4,0.5,0.8,0.8,1.1s0.7,0.5,1.2,0.7
			c0.5,0.2,0.9,0.3,1.4,0.5l6,1.5c0.9,0.2,1.7,0.5,2.5,0.9c0.8,0.3,1.5,0.8,2,1.3s1,1.1,1.4,1.8c0.3,0.7,0.5,1.6,0.5,2.6
			c0,0.3,0,0.7-0.1,1.1c-0.1,0.5-0.2,1-0.4,1.5c-0.2,0.5-0.5,1.1-0.9,1.6c-0.4,0.5-1,1-1.7,1.5c-0.7,0.4-1.6,0.8-2.6,1.1
			c-1,0.3-2.3,0.4-3.7,0.4c-1.5,0-2.8-0.2-4-0.5c-1.2-0.3-2.3-0.9-3.2-1.6c-0.9-0.7-1.5-1.6-2-2.7c-0.5-1.1-0.7-2.4-0.6-4h2.4
			C87.5,60.9,87.7,62,88.1,62.8z"/>
		<path d="M107.6,50.4c0.5-1.6,1.2-3,2.2-4.2c1-1.2,2.2-2.2,3.6-2.9c1.5-0.7,3.2-1.1,5.1-1.1c1.9,0,3.6,0.4,5.1,1.1
			c1.5,0.7,2.7,1.7,3.6,2.9c1,1.2,1.7,2.6,2.2,4.2c0.5,1.6,0.7,3.2,0.7,4.9s-0.2,3.4-0.7,4.9c-0.5,1.6-1.2,2.9-2.2,4.1
			c-1,1.2-2.2,2.1-3.6,2.9c-1.5,0.7-3.1,1.1-5.1,1.1c-1.9,0-3.6-0.4-5.1-1.1c-1.5-0.7-2.7-1.7-3.6-2.9c-1-1.2-1.7-2.6-2.2-4.1
			c-0.5-1.6-0.7-3.2-0.7-4.9C106.8,53.6,107.1,52,107.6,50.4z M109.7,59.4c0.4,1.3,0.9,2.5,1.7,3.5c0.7,1,1.7,1.9,2.9,2.5
			c1.2,0.6,2.6,0.9,4.2,0.9s3-0.3,4.2-0.9c1.2-0.6,2.1-1.5,2.9-2.5c0.7-1,1.3-2.2,1.7-3.5s0.5-2.7,0.5-4c0-1.4-0.2-2.7-0.5-4
			c-0.4-1.3-0.9-2.5-1.7-3.5c-0.7-1-1.7-1.9-2.9-2.5c-1.2-0.6-2.6-0.9-4.2-0.9s-3,0.3-4.2,0.9s-2.1,1.5-2.9,2.5s-1.3,2.2-1.7,3.5
			c-0.4,1.3-0.5,2.7-0.5,4C109.2,56.7,109.4,58,109.7,59.4z"/>
		<path d="M136.1,42.8v23h13.8v2h-16.2v-25H136.1z"/>
		<path d="M154.4,42.8v15.5c0,1.5,0.2,2.7,0.5,3.7c0.3,1,0.8,1.8,1.4,2.5c0.6,0.6,1.4,1.1,2.3,1.4c0.9,0.3,1.9,0.4,3,0.4
			c1.2,0,2.2-0.1,3.1-0.4c0.9-0.3,1.7-0.8,2.3-1.4c0.6-0.6,1.1-1.5,1.4-2.5c0.3-1,0.5-2.2,0.5-3.7V42.8h2.4v16
			c0,1.3-0.2,2.5-0.5,3.7c-0.4,1.2-0.9,2.2-1.7,3c-0.8,0.9-1.8,1.5-3,2c-1.2,0.5-2.7,0.8-4.4,0.8c-1.7,0-3.2-0.2-4.4-0.8
			c-1.2-0.5-2.2-1.2-3-2c-0.8-0.9-1.3-1.9-1.7-3c-0.4-1.2-0.5-2.4-0.5-3.7v-16H154.4z"/>
		<path d="M192.9,42.8v2h-8.6v23H182v-23h-8.6v-2H192.9z"/>
		<path d="M197.8,42.8v25h-2.4v-25H197.8z"/>
		<path d="M202.3,50.4c0.5-1.6,1.2-3,2.2-4.2c1-1.2,2.2-2.2,3.6-2.9c1.5-0.7,3.2-1.1,5.1-1.1s3.6,0.4,5.1,1.1
			c1.5,0.7,2.7,1.7,3.6,2.9c1,1.2,1.7,2.6,2.2,4.2c0.5,1.6,0.7,3.2,0.7,4.9s-0.2,3.4-0.7,4.9s-1.2,2.9-2.2,4.1s-2.2,2.1-3.6,2.9
			c-1.5,0.7-3.1,1.1-5.1,1.1s-3.6-0.4-5.1-1.1c-1.5-0.7-2.7-1.7-3.6-2.9c-1-1.2-1.7-2.6-2.2-4.1c-0.5-1.6-0.7-3.2-0.7-4.9
			S201.8,52,202.3,50.4z M204.5,59.4c0.4,1.3,0.9,2.5,1.7,3.5c0.7,1,1.7,1.9,2.9,2.5s2.6,0.9,4.2,0.9s3-0.3,4.2-0.9
			c1.2-0.6,2.1-1.5,2.9-2.5c0.7-1,1.3-2.2,1.7-3.5c0.4-1.3,0.5-2.7,0.5-4c0-1.4-0.2-2.7-0.5-4c-0.4-1.3-0.9-2.5-1.7-3.5
			c-0.7-1-1.7-1.9-2.9-2.5c-1.2-0.6-2.6-0.9-4.2-0.9s-3,0.3-4.2,0.9s-2.1,1.5-2.9,2.5s-1.3,2.2-1.7,3.5c-0.4,1.3-0.5,2.7-0.5,4
			C203.9,56.7,204.1,58,204.5,59.4z"/>
		<path d="M231.1,42.8L245.5,64h0.1V42.8h2.4v25h-2.6l-14.4-21.2h-0.1v21.2h-2.4v-25H231.1z"/>
		<path d="M254.6,62.8c0.4,0.9,1,1.6,1.7,2.1c0.7,0.5,1.6,0.9,2.6,1.1s2.1,0.3,3.2,0.3c0.6,0,1.3-0.1,2.1-0.3s1.5-0.5,2.1-0.9
			s1.2-0.9,1.6-1.6c0.4-0.6,0.7-1.4,0.7-2.3c0-0.7-0.2-1.3-0.5-1.8c-0.3-0.5-0.7-0.9-1.2-1.3c-0.5-0.4-1-0.6-1.6-0.9
			c-0.6-0.2-1.2-0.4-1.8-0.5l-5.5-1.4c-0.7-0.2-1.4-0.4-2.1-0.7c-0.7-0.3-1.3-0.7-1.8-1.1c-0.5-0.5-0.9-1-1.2-1.7
			c-0.3-0.7-0.5-1.5-0.5-2.5c0-0.6,0.1-1.3,0.3-2.1c0.2-0.8,0.7-1.6,1.3-2.3c0.6-0.7,1.5-1.3,2.6-1.8c1.1-0.5,2.5-0.8,4.3-0.8
			c1.2,0,2.4,0.2,3.5,0.5c1.1,0.3,2.1,0.8,2.9,1.5c0.8,0.7,1.5,1.5,2,2.4c0.5,1,0.7,2.1,0.7,3.4h-2.4c0-1-0.3-1.8-0.6-2.5
			c-0.4-0.7-0.9-1.3-1.5-1.8c-0.6-0.5-1.3-0.8-2.1-1.1c-0.8-0.2-1.6-0.4-2.5-0.4c-0.8,0-1.6,0.1-2.3,0.3c-0.7,0.2-1.4,0.5-2,0.8
			c-0.6,0.4-1,0.9-1.4,1.5c-0.3,0.6-0.5,1.4-0.5,2.3c0,0.6,0.1,1.1,0.3,1.5c0.2,0.4,0.5,0.8,0.8,1.1c0.3,0.3,0.7,0.5,1.2,0.7
			c0.5,0.2,0.9,0.3,1.4,0.5l6,1.5c0.9,0.2,1.7,0.5,2.5,0.9c0.8,0.3,1.5,0.8,2,1.3c0.6,0.5,1,1.1,1.4,1.8c0.3,0.7,0.5,1.6,0.5,2.6
			c0,0.3,0,0.7-0.1,1.1s-0.2,1-0.4,1.5c-0.2,0.5-0.5,1.1-0.9,1.6c-0.4,0.5-1,1-1.7,1.5c-0.7,0.4-1.6,0.8-2.6,1.1
			c-1,0.3-2.3,0.4-3.7,0.4s-2.8-0.2-4-0.5c-1.2-0.3-2.3-0.9-3.2-1.6c-0.9-0.7-1.5-1.6-2-2.7c-0.5-1.1-0.7-2.4-0.6-4h2.4
			C253.9,60.9,254.1,62,254.6,62.8z"/>
	</g>
</g>
</svg>
