<?xml version="1.0" encoding="utf-8"?>
<!-- Generator: Adobe Illustrator 23.0.4, SVG Export Plug-In . SVG Version: 6.00 Build 0)  -->
<svg version="1.1" id="Layer_1" xmlns="http://www.w3.org/2000/svg" xmlns:xlink="http://www.w3.org/1999/xlink" x="0px" y="0px"
	 viewBox="0 0 572.37 166.33" style="enable-background:new 0 0 572.37 166.33;" xml:space="preserve">
<style type="text/css">
	.st0{fill:#FFFFFF;}
	.st1{stroke:#000000;stroke-width:11;stroke-miterlimit:10;}
	.st2{clip-path:url(#SVGID_2_);}
	.st3{fill:#A4C2DB;}
	.st4{fill:#0075B2;}
</style>
<circle class="st0" cx="85.73" cy="83.72" r="73.12"/>
<path class="st1" d="M58.76,45.51"/>
<g>
	<path class="st0" d="M85.84,151.14c-5.91,0-11.85-0.78-17.71-2.35c-17.55-4.7-32.21-15.96-41.3-31.69
		c-9.08-15.73-11.5-34.06-6.79-51.61s15.96-32.22,31.69-41.3l0,0c15.73-9.08,34.06-11.5,51.61-6.79
		c17.55,4.7,32.22,15.96,41.3,31.69c18.75,32.48,7.58,74.16-24.9,92.91C109.26,148.05,97.62,151.14,85.84,151.14z M85.62,17.68
		c-11.1,0-22.33,2.82-32.61,8.75c-15.14,8.74-25.97,22.85-30.49,39.73c-4.52,16.88-2.2,34.52,6.54,49.66
		c8.74,15.14,22.85,25.97,39.73,30.49c16.88,4.52,34.52,2.2,49.66-6.54c31.25-18.04,41.99-58.14,23.95-89.39
		C130.29,29.41,108.25,17.68,85.62,17.68z"/>
	<g>
		<defs>
			<circle id="SVGID_1_" cx="85.73" cy="83.1" r="66.73"/>
		</defs>
		<clipPath id="SVGID_2_">
			<use xlink:href="#SVGID_1_"  style="overflow:visible;"/>
		</clipPath>
		<g class="st2">
			<g>
				<rect x="-10.37" y="72.29" class="st3" width="193.33" height="1.29"/>
				<rect x="-10.37" y="51.37" class="st3" width="193.33" height="1.29"/>
				<rect x="-10.37" y="30.45" class="st3" width="193.33" height="1.29"/>
				<rect x="-10.37" y="9.53" class="st3" width="193.33" height="1.29"/>
				<rect x="-10.37" y="-11.4" class="st3" width="193.33" height="1.29"/>
				<rect x="-10.37" y="135.06" class="st3" width="193.33" height="1.29"/>
				<rect x="-10.37" y="114.14" class="st3" width="193.33" height="1.29"/>
				<rect x="-10.37" y="93.22" class="st3" width="193.33" height="1.29"/>
			</g>
			<g>
				
					<rect x="-2.43" y="77.54" transform="matrix(0.4999 -0.8661 0.8661 0.4999 -20.5872 120.7137)" class="st3" width="193.33" height="1.29"/>
				
					<rect x="-20.55" y="67.08" transform="matrix(0.4999 -0.8661 0.8661 0.4999 -20.5882 99.7894)" class="st3" width="193.33" height="1.29"/>
				
					<rect x="-38.67" y="56.62" transform="matrix(0.4999 -0.8661 0.8661 0.4999 -20.5893 78.8648)" class="st3" width="193.33" height="1.29"/>
				
					<rect x="-56.79" y="46.16" transform="matrix(0.4999 -0.8661 0.8661 0.4999 -20.5902 57.9408)" class="st3" width="193.33" height="1.29"/>
				
					<rect x="-74.91" y="35.69" transform="matrix(0.4999 -0.8661 0.8661 0.4999 -20.5913 37.0162)" class="st3" width="193.33" height="1.29"/>
				
					<rect x="51.93" y="108.92" transform="matrix(0.4999 -0.8661 0.8661 0.4999 -20.5844 183.4868)" class="st3" width="193.33" height="1.29"/>
				
					<rect x="33.81" y="98.46" transform="matrix(0.4999 -0.8661 0.8661 0.4999 -20.585 162.5626)" class="st3" width="193.33" height="1.29"/>
				
					<rect x="15.69" y="88" transform="matrix(0.4999 -0.8661 0.8661 0.4999 -20.5862 141.638)" class="st3" width="193.33" height="1.29"/>
			</g>
			<g>
				
					<rect x="94.74" y="-26.99" transform="matrix(0.866 -0.5 0.5 0.866 -22.0586 57.0256)" class="st3" width="1.29" height="193.33"/>
				
					<rect x="76.62" y="-16.53" transform="matrix(0.866 -0.5 0.5 0.866 -29.7167 49.3671)" class="st3" width="1.29" height="193.33"/>
				<rect x="58.5" y="-6.07" transform="matrix(0.866 -0.5 0.5 0.866 -37.375 41.7091)" class="st3" width="1.29" height="193.33"/>
				<rect x="40.38" y="4.4" transform="matrix(0.866 -0.5 0.5 0.866 -45.0332 34.0507)" class="st3" width="1.29" height="193.33"/>
				
					<rect x="22.26" y="14.86" transform="matrix(0.866 -0.5 0.5 0.866 -52.6914 26.3926)" class="st3" width="1.29" height="193.33"/>
				
					<rect x="149.1" y="-58.37" transform="matrix(0.866 -0.5 0.5 0.866 0.9161 80.0004)" class="st3" width="1.29" height="193.33"/>
				
					<rect x="130.98" y="-47.91" transform="matrix(0.866 -0.5 0.5 0.866 -6.7421 72.342)" class="st3" width="1.29" height="193.33"/>
				
					<rect x="112.86" y="-37.45" transform="matrix(0.866 -0.5 0.5 0.866 -14.4003 64.684)" class="st3" width="1.29" height="193.33"/>
			</g>
		</g>
	</g>
	<g>
		<g>
			<polygon class="st4" points="48.95,31.09 109.35,135.71 145.58,72.94 133.5,52.01 109.35,93.86 73.11,31.09 			"/>
			<path class="st4" d="M109.35,137.01L47.82,30.44l25.66,0l35.86,62.12l24.16-41.85l12.83,22.22L109.35,137.01z M50.07,31.74
				l59.27,102.66l35.49-61.47l-11.33-19.62l-24.16,41.85L72.73,31.74L50.07,31.74z"/>
		</g>
	</g>
	<path class="st4" d="M85.73,159.62c-42.19,0-76.52-34.32-76.52-76.52S43.54,6.59,85.73,6.59s76.51,34.32,76.51,76.51
		S127.92,159.62,85.73,159.62z M85.73,14c-38.1,0-69.1,31-69.1,69.1s31,69.1,69.1,69.1s69.1-31,69.1-69.1S123.83,14,85.73,14z"/>
	<g>
		<path class="st4" d="M172.74,41.94c0.62-3.36,1.65-6.1,3.08-8.23c1.43-2.12,3.31-3.67,5.65-4.65c2.34-0.98,5.2-1.47,8.58-1.47
			c3.39,0,6.25,0.49,8.58,1.47c2.34,0.98,4.22,2.53,5.65,4.65c1.43,2.12,2.46,4.86,3.08,8.23c0.62,3.36,0.93,7.43,0.93,12.2
			c0,4.77-0.31,8.83-0.93,12.2c-0.62,3.36-1.65,6.1-3.08,8.23c-1.43,2.12-3.32,3.64-5.65,4.54c-2.34,0.91-5.2,1.36-8.58,1.36
			c-3.39,0-6.25-0.45-8.58-1.36c-2.34-0.91-4.22-2.42-5.65-4.54c-1.43-2.12-2.46-4.86-3.08-8.23c-0.62-3.36-0.93-7.43-0.93-12.2
			C171.81,49.36,172.12,45.3,172.74,41.94z M185.68,62.68c0.09,2.27,0.3,4.07,0.61,5.4c0.31,1.34,0.76,2.27,1.36,2.79
			c0.6,0.53,1.4,0.79,2.4,0.79s1.8-0.26,2.4-0.79c0.6-0.52,1.05-1.45,1.36-2.79c0.31-1.33,0.51-3.14,0.61-5.4
			c0.09-2.26,0.14-5.11,0.14-8.55s-0.05-6.28-0.14-8.55c-0.1-2.26-0.3-4.06-0.61-5.4c-0.31-1.33-0.76-2.26-1.36-2.79
			c-0.6-0.52-1.4-0.79-2.4-0.79s-1.8,0.26-2.4,0.79c-0.6,0.53-1.05,1.46-1.36,2.79c-0.31,1.34-0.51,3.14-0.61,5.4
			c-0.1,2.27-0.14,5.11-0.14,8.55S185.59,60.42,185.68,62.68z"/>
		<path class="st4" d="M231.61,28.59l5.36,30.26h0.14l5.37-30.26h19.03v51.07h-12.45V41.61h-0.14l-7.08,38.06h-9.59l-7.08-38.06
			h-0.14v38.06h-12.45V28.59H231.61z"/>
		<path class="st4" d="M282.18,28.59l8.58,31.47h0.14V28.59h12.45v51.07h-14.59l-8.87-31.55h-0.14v31.55H267.3V28.59H282.18z"/>
		<path class="st4" d="M322.45,28.59v51.07h-13.31V28.59H322.45z"/>
		<path class="st4" d="M338.26,28.59l5.37,38.48h0.14l5.37-38.48h14.16l-11.02,51.07h-17.17l-10.8-51.07H338.26z"/>
		<path class="st4" d="M395.7,28.59v10.87h-16.95v8.73h15.88v10.44h-15.88V68.8h17.6v10.87h-30.9V28.59H395.7z"/>
		<path class="st4" d="M420.74,38.18c-0.57-1.05-1.5-1.57-2.79-1.57c-1,0-1.8,0.26-2.4,0.79c-0.6,0.53-1.05,1.46-1.36,2.79
			c-0.31,1.34-0.51,3.14-0.61,5.4c-0.1,2.27-0.14,5.11-0.14,8.55s0.05,6.28,0.14,8.55c0.1,2.27,0.3,4.07,0.61,5.4
			c0.31,1.34,0.76,2.27,1.36,2.79c0.6,0.53,1.39,0.79,2.4,0.79c0.81,0,1.48-0.2,2-0.61c0.52-0.4,0.93-1.08,1.22-2.04
			c0.29-0.95,0.49-2.23,0.61-3.83c0.12-1.6,0.18-3.61,0.18-6.04h12.88v3.79c0,3.58-0.48,6.51-1.43,8.8
			c-0.96,2.29-2.22,4.09-3.79,5.4c-1.57,1.31-3.37,2.19-5.4,2.65c-2.03,0.45-4.11,0.68-6.26,0.68c-3.72,0-6.77-0.45-9.16-1.36
			c-2.39-0.91-4.25-2.42-5.58-4.54c-1.34-2.12-2.25-4.86-2.75-8.23c-0.5-3.36-0.75-7.43-0.75-12.2c0-4.86,0.3-8.99,0.89-12.38
			c0.6-3.39,1.61-6.13,3.04-8.23c1.43-2.1,3.31-3.61,5.65-4.54c2.34-0.93,5.22-1.39,8.66-1.39c3,0,5.55,0.38,7.65,1.14
			c2.1,0.76,3.8,1.85,5.12,3.25c1.31,1.41,2.26,3.1,2.86,5.08c0.6,1.98,0.89,4.21,0.89,6.69v3.22H421.6v-2.86
			C421.6,41.21,421.31,39.23,420.74,38.18z"/>
		<path class="st4" d="M436.48,39.9v-11.3h33.19v11.3h-10.01v39.77h-13.3V39.9H436.48z"/>
		<path class="st4" d="M472.1,41.94c0.62-3.36,1.65-6.1,3.08-8.23c1.43-2.12,3.31-3.67,5.65-4.65c2.34-0.98,5.2-1.47,8.58-1.47
			c3.38,0,6.25,0.49,8.58,1.47c2.34,0.98,4.22,2.53,5.65,4.65c1.43,2.12,2.46,4.86,3.08,8.23c0.62,3.36,0.93,7.43,0.93,12.2
			c0,4.77-0.31,8.83-0.93,12.2c-0.62,3.36-1.65,6.1-3.08,8.23c-1.43,2.12-3.31,3.64-5.65,4.54c-2.34,0.91-5.2,1.36-8.58,1.36
			c-3.39,0-6.25-0.45-8.58-1.36c-2.34-0.91-4.22-2.42-5.65-4.54c-1.43-2.12-2.46-4.86-3.08-8.23c-0.62-3.36-0.93-7.43-0.93-12.2
			C471.17,49.36,471.48,45.3,472.1,41.94z M485.05,62.68c0.1,2.27,0.3,4.07,0.61,5.4c0.31,1.34,0.76,2.27,1.36,2.79
			c0.6,0.53,1.39,0.79,2.4,0.79c1,0,1.8-0.26,2.4-0.79c0.6-0.52,1.05-1.45,1.36-2.79c0.31-1.33,0.51-3.14,0.61-5.4
			c0.09-2.26,0.14-5.11,0.14-8.55s-0.05-6.28-0.14-8.55c-0.1-2.26-0.3-4.06-0.61-5.4c-0.31-1.33-0.76-2.26-1.36-2.79
			c-0.6-0.52-1.39-0.79-2.4-0.79c-1,0-1.8,0.26-2.4,0.79c-0.6,0.53-1.05,1.46-1.36,2.79c-0.31,1.34-0.51,3.14-0.61,5.4
			c-0.1,2.27-0.14,5.11-0.14,8.55S484.95,60.42,485.05,62.68z"/>
		<path class="st4" d="M533.26,28.59c2.53,0,4.69,0.33,6.47,1c1.79,0.67,3.24,1.61,4.36,2.83c1.12,1.22,1.93,2.66,2.43,4.33
			c0.5,1.67,0.75,3.48,0.75,5.44c0,3.43-0.69,6.2-2.07,8.3c-1.38,2.1-3.6,3.39-6.65,3.86v0.14c3.19,0.29,5.39,1.41,6.58,3.36
			c1.19,1.96,1.79,4.65,1.79,8.08v4.36c0,0.67,0,1.36,0,2.07s0.02,1.4,0.07,2.04c0.05,0.64,0.12,1.23,0.21,1.75
			c0.09,0.53,0.21,0.93,0.36,1.22c0.19,0.29,0.38,0.56,0.57,0.82c0.19,0.26,0.5,0.51,0.93,0.75v0.72h-14.16
			c-0.33-0.67-0.58-1.45-0.75-2.36c-0.17-0.91-0.29-1.81-0.36-2.72c-0.07-0.91-0.12-1.78-0.14-2.61c-0.02-0.83-0.04-1.51-0.04-2.04
			v-3.43c0-1.43-0.07-2.62-0.21-3.58c-0.14-0.95-0.39-1.7-0.75-2.25c-0.36-0.55-0.81-0.93-1.36-1.14c-0.55-0.21-1.23-0.32-2.04-0.32
			h-3.5v20.46h-13.31V28.59H533.26z M528.4,50.2c1.91,0,3.31-0.56,4.22-1.68c0.91-1.12,1.36-2.59,1.36-4.4
			c0-2.15-0.44-3.67-1.32-4.58c-0.88-0.91-2.32-1.36-4.33-1.36h-2.58V50.2H528.4z"/>
	</g>
	<g>
		<path d="M178.7,124.61c0.85,1.77,2.01,3.17,3.49,4.22c1.48,1.05,3.23,1.8,5.26,2.25c2.02,0.45,4.18,0.68,6.49,0.68
			c1.32,0,2.75-0.19,4.3-0.57c1.55-0.38,3-0.99,4.34-1.82c1.34-0.83,2.46-1.91,3.35-3.22c0.89-1.31,1.34-2.9,1.34-4.76
			c0-1.43-0.32-2.67-0.95-3.72c-0.63-1.05-1.46-1.93-2.47-2.65c-1.01-0.72-2.13-1.3-3.35-1.75c-1.22-0.45-2.42-0.82-3.6-1.11
			l-11.22-2.79c-1.46-0.38-2.88-0.86-4.27-1.43c-1.39-0.57-2.6-1.33-3.63-2.29c-1.04-0.95-1.87-2.12-2.5-3.51
			c-0.63-1.38-0.95-3.08-0.95-5.08c0-1.24,0.23-2.69,0.71-4.36c0.47-1.67,1.35-3.24,2.65-4.72c1.29-1.48,3.07-2.73,5.33-3.76
			c2.26-1.02,5.15-1.54,8.68-1.54c2.49,0,4.87,0.33,7.12,1c2.26,0.67,4.23,1.67,5.92,3c1.69,1.34,3.04,2.99,4.06,4.97
			c1.01,1.98,1.52,4.28,1.52,6.9h-4.8c-0.09-1.95-0.53-3.66-1.3-5.11c-0.78-1.45-1.79-2.67-3.03-3.65c-1.25-0.98-2.68-1.72-4.3-2.22
			c-1.62-0.5-3.33-0.75-5.11-0.75c-1.65,0-3.23,0.18-4.76,0.54c-1.53,0.36-2.87,0.93-4.02,1.72c-1.15,0.79-2.08,1.82-2.79,3.11
			c-0.71,1.29-1.06,2.89-1.06,4.79c0,1.19,0.2,2.23,0.6,3.11c0.4,0.88,0.95,1.63,1.66,2.25c0.71,0.62,1.52,1.12,2.43,1.5
			c0.92,0.38,1.89,0.69,2.93,0.93l12.27,3.08c1.79,0.48,3.47,1.06,5.04,1.75c1.57,0.69,2.96,1.55,4.16,2.58
			c1.2,1.03,2.14,2.28,2.82,3.76c0.68,1.48,1.02,3.27,1.02,5.36c0,0.57-0.06,1.34-0.18,2.29c-0.12,0.95-0.4,1.97-0.85,3.04
			c-0.45,1.07-1.08,2.16-1.9,3.25c-0.82,1.1-1.95,2.09-3.39,2.97c-1.44,0.88-3.21,1.6-5.33,2.15c-2.12,0.55-4.66,0.82-7.62,0.82
			c-2.96,0-5.71-0.35-8.25-1.04c-2.54-0.69-4.7-1.75-6.49-3.18c-1.79-1.43-3.16-3.27-4.13-5.51c-0.96-2.24-1.38-4.94-1.23-8.08h4.8
			C177.45,120.66,177.85,122.85,178.7,124.61z"/>
		<path d="M218.48,99.22c0.99-3.19,2.47-6.02,4.44-8.48c1.98-2.46,4.46-4.41,7.44-5.87c2.99-1.45,6.45-2.18,10.4-2.18
			c3.95,0,7.41,0.73,10.37,2.18c2.96,1.46,5.43,3.41,7.41,5.87c1.97,2.46,3.46,5.28,4.44,8.48c0.99,3.2,1.48,6.56,1.48,10.09
			c0,3.53-0.49,6.89-1.48,10.09c-0.99,3.2-2.47,6.01-4.44,8.44c-1.98,2.43-4.44,4.38-7.41,5.83c-2.96,1.45-6.42,2.18-10.37,2.18
			c-3.95,0-7.42-0.73-10.4-2.18c-2.99-1.45-5.47-3.4-7.44-5.83s-3.46-5.25-4.44-8.44c-0.99-3.19-1.48-6.56-1.48-10.09
			C217,105.78,217.49,102.41,218.48,99.22z M222.89,117.5c0.73,2.69,1.86,5.1,3.39,7.22c1.53,2.12,3.49,3.83,5.89,5.11
			c2.4,1.29,5.27,1.93,8.61,1.93c3.34,0,6.19-0.64,8.57-1.93c2.37-1.29,4.33-2.99,5.85-5.11c1.53-2.12,2.66-4.53,3.39-7.22
			c0.73-2.69,1.09-5.42,1.09-8.19c0-2.81-0.36-5.55-1.09-8.23c-0.73-2.67-1.86-5.07-3.39-7.19c-1.53-2.12-3.48-3.83-5.85-5.11
			c-2.38-1.29-5.23-1.93-8.57-1.93c-3.34,0-6.21,0.64-8.61,1.93c-2.4,1.29-4.36,2.99-5.89,5.11c-1.53,2.12-2.66,4.52-3.39,7.19
			c-0.73,2.67-1.09,5.41-1.09,8.23C221.79,112.07,222.16,114.8,222.89,117.5z"/>
		<path d="M276.74,83.77v46.93h28.21v4.15h-33.01V83.77H276.74z"/>
		<path d="M314.13,83.77v31.62c0,2.96,0.33,5.47,0.99,7.55c0.66,2.07,1.62,3.77,2.89,5.08c1.27,1.31,2.82,2.27,4.66,2.86
			c1.83,0.6,3.9,0.89,6.21,0.89c2.35,0,4.44-0.3,6.28-0.89c1.83-0.6,3.39-1.55,4.66-2.86c1.27-1.31,2.23-3,2.89-5.08
			c0.66-2.07,0.99-4.59,0.99-7.55V83.77h4.8v32.69c0,2.62-0.37,5.11-1.09,7.48c-0.73,2.36-1.88,4.42-3.46,6.19
			c-1.58,1.76-3.6,3.16-6.07,4.18s-5.47,1.54-8.99,1.54c-3.48,0-6.45-0.51-8.92-1.54s-4.49-2.42-6.07-4.18
			c-1.58-1.76-2.73-3.83-3.46-6.19c-0.73-2.36-1.09-4.85-1.09-7.48V83.77H314.13z"/>
		<path d="M392.63,83.77v4.15h-17.56v46.93h-4.8V87.92h-17.49v-4.15H392.63z"/>
		<path d="M402.51,83.77v51.07h-4.8V83.77H402.51z"/>
		<path d="M411.82,99.22c0.99-3.19,2.47-6.02,4.44-8.48c1.98-2.46,4.46-4.41,7.44-5.87c2.99-1.45,6.45-2.18,10.4-2.18
			s7.41,0.73,10.37,2.18c2.96,1.46,5.43,3.41,7.41,5.87c1.98,2.46,3.46,5.28,4.44,8.48c0.99,3.2,1.48,6.56,1.48,10.09
			c0,3.53-0.49,6.89-1.48,10.09c-0.99,3.2-2.47,6.01-4.44,8.44c-1.97,2.43-4.44,4.38-7.41,5.83s-6.42,2.18-10.37,2.18
			s-7.42-0.73-10.4-2.18s-5.47-3.4-7.44-5.83c-1.97-2.43-3.46-5.25-4.44-8.44c-0.99-3.19-1.48-6.56-1.48-10.09
			C410.34,105.78,410.83,102.41,411.82,99.22z M416.23,117.5c0.73,2.69,1.86,5.1,3.39,7.22c1.53,2.12,3.49,3.83,5.89,5.11
			s5.27,1.93,8.61,1.93s6.2-0.64,8.57-1.93c2.37-1.29,4.33-2.99,5.85-5.11c1.53-2.12,2.66-4.53,3.39-7.22
			c0.73-2.69,1.09-5.42,1.09-8.19c0-2.81-0.37-5.55-1.09-8.23c-0.73-2.67-1.86-5.07-3.39-7.19c-1.53-2.12-3.48-3.83-5.85-5.11
			c-2.38-1.29-5.23-1.93-8.57-1.93s-6.21,0.64-8.61,1.93s-4.36,2.99-5.89,5.11c-1.53,2.12-2.66,4.52-3.39,7.19
			c-0.73,2.67-1.09,5.41-1.09,8.23C415.13,112.07,415.5,114.8,416.23,117.5z"/>
		<path d="M470.57,83.77l29.34,43.21h0.14V83.77h4.8v51.07h-5.36l-29.34-43.21h-0.14v43.21h-4.8V83.77H470.57z"/>
		<path d="M518.4,124.61c0.85,1.77,2.01,3.17,3.49,4.22c1.48,1.05,3.23,1.8,5.25,2.25c2.02,0.45,4.19,0.68,6.49,0.68
			c1.32,0,2.75-0.19,4.3-0.57c1.55-0.38,3-0.99,4.34-1.82c1.34-0.83,2.46-1.91,3.35-3.22c0.89-1.31,1.34-2.9,1.34-4.76
			c0-1.43-0.32-2.67-0.95-3.72c-0.63-1.05-1.46-1.93-2.47-2.65c-1.01-0.72-2.13-1.3-3.35-1.75c-1.22-0.45-2.42-0.82-3.6-1.11
			l-11.21-2.79c-1.46-0.38-2.88-0.86-4.27-1.43c-1.39-0.57-2.6-1.33-3.63-2.29c-1.04-0.95-1.87-2.12-2.5-3.51
			c-0.63-1.38-0.95-3.08-0.95-5.08c0-1.24,0.23-2.69,0.71-4.36c0.47-1.67,1.35-3.24,2.64-4.72c1.29-1.48,3.07-2.73,5.33-3.76
			c2.26-1.02,5.15-1.54,8.68-1.54c2.49,0,4.87,0.33,7.12,1c2.26,0.67,4.23,1.67,5.93,3c1.69,1.34,3.04,2.99,4.06,4.97
			c1.01,1.98,1.52,4.28,1.52,6.9h-4.8c-0.09-1.95-0.53-3.66-1.3-5.11c-0.78-1.45-1.79-2.67-3.03-3.65c-1.25-0.98-2.68-1.72-4.3-2.22
			c-1.62-0.5-3.33-0.75-5.11-0.75c-1.65,0-3.23,0.18-4.76,0.54c-1.53,0.36-2.87,0.93-4.02,1.72c-1.15,0.79-2.08,1.82-2.79,3.11
			c-0.71,1.29-1.06,2.89-1.06,4.79c0,1.19,0.2,2.23,0.6,3.11c0.4,0.88,0.95,1.63,1.66,2.25c0.71,0.62,1.52,1.12,2.43,1.5
			c0.92,0.38,1.89,0.69,2.93,0.93l12.27,3.08c1.79,0.48,3.47,1.06,5.04,1.75c1.58,0.69,2.96,1.55,4.16,2.58
			c1.2,1.03,2.14,2.28,2.82,3.76c0.68,1.48,1.02,3.27,1.02,5.36c0,0.57-0.06,1.34-0.18,2.29c-0.12,0.95-0.4,1.97-0.85,3.04
			c-0.45,1.07-1.08,2.16-1.9,3.25c-0.82,1.1-1.95,2.09-3.39,2.97c-1.43,0.88-3.21,1.6-5.33,2.15c-2.12,0.55-4.66,0.82-7.62,0.82
			c-2.96,0-5.71-0.35-8.25-1.04c-2.54-0.69-4.7-1.75-6.49-3.18c-1.79-1.43-3.16-3.27-4.13-5.51c-0.96-2.24-1.38-4.94-1.23-8.08h4.8
			C517.15,120.66,517.55,122.85,518.4,124.61z"/>
	</g>
</g>
<g>
</g>
<g>
</g>
<g>
</g>
<g>
</g>
<g>
</g>
<g>
</g>
</svg>
