<?xml version="1.0" encoding="utf-8"?>
<!-- Generator: Adobe Illustrator 24.0.3, SVG Export Plug-In . SVG Version: 6.00 Build 0)  -->
<svg version="1.1" id="Layer_1" xmlns="http://www.w3.org/2000/svg" xmlns:xlink="http://www.w3.org/1999/xlink" x="0px" y="0px"
	 viewBox="0 0 572.4 166.3" style="enable-background:new 0 0 572.4 166.3;" xml:space="preserve">
<style type="text/css">
	.st0{fill:#FFFFFF;}
	.st1{stroke:#000000;stroke-width:11;stroke-miterlimit:10;}
	.st2{clip-path:url(#SVGID_2_);}
	.st3{fill:#A4C2DB;}
	.st4{fill:#0075B2;}
</style>
<circle class="st0" cx="85.7" cy="83.7" r="73.1"/>
<path class="st1" d="M58.8,45.5"/>
<g>
	<path class="st0" d="M85.8,151.1c-5.9,0-11.8-0.8-17.7-2.4c-17.5-4.7-32.2-16-41.3-31.7C17.7,101.4,15.3,83,20,65.5
		s16-32.2,31.7-41.3l0,0c15.7-9.1,34.1-11.5,51.6-6.8c17.6,4.7,32.2,16,41.3,31.7c18.8,32.5,7.6,74.2-24.9,92.9
		C109.3,148.1,97.6,151.1,85.8,151.1z M85.6,17.7c-11.1,0-22.3,2.8-32.6,8.8c-15.1,8.7-26,22.8-30.5,39.7s-2.2,34.5,6.5,49.7
		s22.9,26,39.7,30.5s34.5,2.2,49.7-6.5c31.2-18,42-58.1,23.9-89.4C130.3,29.4,108.2,17.7,85.6,17.7z"/>
	<g>
		<g>
			<defs>
				<circle id="SVGID_1_" cx="85.7" cy="83.1" r="66.7"/>
			</defs>
			<clipPath id="SVGID_2_">
				<use xlink:href="#SVGID_1_"  style="overflow:visible;"/>
			</clipPath>
			<g class="st2">
				<g>
					<rect x="-10.4" y="72.3" class="st3" width="193.3" height="1.3"/>
					<rect x="-10.4" y="51.4" class="st3" width="193.3" height="1.3"/>
					<rect x="-10.4" y="30.5" class="st3" width="193.3" height="1.3"/>
					<rect x="-10.4" y="9.5" class="st3" width="193.3" height="1.3"/>
					<rect x="-10.4" y="-11.4" class="st3" width="193.3" height="1.3"/>
					<rect x="-10.4" y="135.1" class="st3" width="193.3" height="1.3"/>
					<rect x="-10.4" y="114.1" class="st3" width="193.3" height="1.3"/>
					<rect x="-10.4" y="93.2" class="st3" width="193.3" height="1.3"/>
				</g>
				<g>
					
						<rect x="-2.4" y="77.5" transform="matrix(0.4999 -0.8661 0.8661 0.4999 -20.5834 120.7165)" class="st3" width="193.3" height="1.3"/>
					
						<rect x="-20.5" y="67.1" transform="matrix(0.4999 -0.8661 0.8661 0.4999 -20.5858 99.7933)" class="st3" width="193.3" height="1.3"/>
					
						<rect x="-38.7" y="56.6" transform="matrix(0.4999 -0.8661 0.8661 0.4999 -20.5879 78.8699)" class="st3" width="193.3" height="1.3"/>
					
						<rect x="-56.8" y="46.2" transform="matrix(0.4999 -0.8661 0.8661 0.4999 -20.5905 57.947)" class="st3" width="193.3" height="1.3"/>
					
						<rect x="-74.9" y="35.7" transform="matrix(0.4999 -0.8661 0.8661 0.4999 -20.5927 37.0136)" class="st3" width="193.3" height="1.3"/>
					
						<rect x="51.9" y="108.9" transform="matrix(0.4999 -0.8661 0.8661 0.4999 -20.5765 183.4859)" class="st3" width="193.3" height="1.3"/>
					
						<rect x="33.8" y="98.5" transform="matrix(0.4999 -0.8661 0.8661 0.4999 -20.5788 162.5632)" class="st3" width="193.3" height="1.3"/>
					
						<rect x="15.7" y="88" transform="matrix(0.4999 -0.8661 0.8661 0.4999 -20.581 141.6397)" class="st3" width="193.3" height="1.3"/>
				</g>
				<g>
					<rect x="94.7" y="-27" transform="matrix(0.866 -0.5 0.5 0.866 -22.0572 57.0269)" class="st3" width="1.3" height="193.3"/>
					<rect x="76.6" y="-16.5" transform="matrix(0.866 -0.5 0.5 0.866 -29.715 49.3681)" class="st3" width="1.3" height="193.3"/>
					<rect x="58.5" y="-6.1" transform="matrix(0.866 -0.5 0.5 0.866 -37.373 41.7093)" class="st3" width="1.3" height="193.3"/>
					<rect x="40.4" y="4.4" transform="matrix(0.866 -0.5 0.5 0.866 -45.0345 34.0541)" class="st3" width="1.3" height="193.3"/>
					<rect x="22.3" y="14.9" transform="matrix(0.866 -0.5 0.5 0.866 -52.6925 26.3953)" class="st3" width="1.3" height="193.3"/>
					<rect x="149.1" y="-58.4" transform="matrix(0.866 -0.5 0.5 0.866 0.9166 80.0033)" class="st3" width="1.3" height="193.3"/>
					<rect x="131" y="-47.9" transform="matrix(0.866 -0.5 0.5 0.866 -6.7413 72.3445)" class="st3" width="1.3" height="193.3"/>
					
						<rect x="112.9" y="-37.5" transform="matrix(0.866 -0.5 0.5 0.866 -14.3993 64.6858)" class="st3" width="1.3" height="193.3"/>
				</g>
			</g>
		</g>
	</g>
	<g>
		<g>
			<polygon class="st4" points="49,31.1 109.3,135.7 145.6,72.9 133.5,52 109.3,93.9 73.1,31.1 			"/>
			<path class="st4" d="M109.3,137L47.8,30.4h25.7l35.9,62.1l24.2-41.8l12.8,22.2L109.3,137z M50.1,31.7l59.3,102.7l35.5-61.5
				l-11.3-19.6l-24.2,41.8L72.7,31.7H50.1z"/>
		</g>
	</g>
	<path class="st4" d="M85.7,159.6c-42.2,0-76.5-34.3-76.5-76.5S43.5,6.6,85.7,6.6s76.5,34.3,76.5,76.5S127.9,159.6,85.7,159.6z
		 M85.7,14c-38.1,0-69.1,31-69.1,69.1s31,69.1,69.1,69.1s69.1-31,69.1-69.1S123.8,14,85.7,14z"/>
	<g>
		<path class="st0" d="M172.7,41.9c0.6-3.4,1.6-6.1,3.1-8.2c1.4-2.1,3.3-3.7,5.6-4.6s5.2-1.5,8.6-1.5c3.4,0,6.2,0.5,8.6,1.5
			c2.3,1,4.2,2.5,5.6,4.6s2.5,4.9,3.1,8.2c0.6,3.4,0.9,7.4,0.9,12.2s-0.3,8.8-0.9,12.2c-0.6,3.4-1.6,6.1-3.1,8.2
			c-1.4,2.1-3.3,3.6-5.6,4.5c-2.3,0.9-5.2,1.4-8.6,1.4c-3.4,0-6.2-0.4-8.6-1.4c-2.3-0.9-4.2-2.4-5.6-4.5s-2.5-4.9-3.1-8.2
			c-0.6-3.4-0.9-7.4-0.9-12.2C171.8,49.4,172.1,45.3,172.7,41.9z M185.7,62.7c0.1,2.3,0.3,4.1,0.6,5.4c0.3,1.3,0.8,2.3,1.4,2.8
			c0.6,0.5,1.4,0.8,2.4,0.8s1.8-0.3,2.4-0.8c0.6-0.5,1.1-1.4,1.4-2.8c0.3-1.3,0.5-3.1,0.6-5.4c0.1-2.3,0.1-5.1,0.1-8.5
			s-0.1-6.3-0.1-8.5c-0.1-2.3-0.3-4.1-0.6-5.4c-0.3-1.3-0.8-2.3-1.4-2.8c-0.6-0.5-1.4-0.8-2.4-0.8s-1.8,0.3-2.4,0.8
			c-0.6,0.5-1.1,1.5-1.4,2.8c-0.3,1.3-0.5,3.1-0.6,5.4c-0.1,2.3-0.1,5.1-0.1,8.5S185.6,60.4,185.7,62.7z"/>
		<path class="st0" d="M231.6,28.6l5.4,30.3h0.1l5.4-30.3h19v51.1h-12.4v-38h-0.1l-7.1,38.1h-9.6l-7.1-38.1H225v38.1h-12.4V28.6
			H231.6z"/>
		<path class="st0" d="M282.2,28.6l8.6,31.5h0.1V28.6h12.5v51.1h-14.6l-8.9-31.5h-0.1v31.5h-12.5V28.6H282.2z"/>
		<path class="st0" d="M322.5,28.6v51.1h-13.3V28.6H322.5z"/>
		<path class="st0" d="M338.3,28.6l5.4,38.5h0.1l5.4-38.5h14.2l-11,51.1h-17.2l-10.8-51.1C324.3,28.6,338.3,28.6,338.3,28.6z"/>
		<path class="st0" d="M395.7,28.6v10.9h-17v8.7h15.9v10.4h-15.9v10.2h17.6v10.9h-30.9V28.6H395.7z"/>
		<path class="st0" d="M420.7,38.2c-0.6-1-1.5-1.6-2.8-1.6c-1,0-1.8,0.3-2.4,0.8c-0.6,0.5-1,1.5-1.4,2.8c-0.3,1.3-0.5,3.1-0.6,5.4
			c-0.1,2.3-0.1,5.1-0.1,8.5s0,6.3,0.1,8.5c0.1,2.3,0.3,4.1,0.6,5.4c0.3,1.3,0.8,2.3,1.4,2.8c0.6,0.5,1.4,0.8,2.4,0.8
			c0.8,0,1.5-0.2,2-0.6c0.5-0.4,0.9-1.1,1.2-2c0.3-0.9,0.5-2.2,0.6-3.8s0.2-3.6,0.2-6h12.9v3.8c0,3.6-0.5,6.5-1.4,8.8
			c-1,2.3-2.2,4.1-3.8,5.4c-1.6,1.3-3.4,2.2-5.4,2.7c-2,0.4-4.1,0.7-6.3,0.7c-3.7,0-6.8-0.4-9.2-1.4s-4.2-2.4-5.6-4.5
			c-1.3-2.1-2.2-4.9-2.8-8.2c-0.5-3.4-0.8-7.4-0.8-12.2c0-4.9,0.3-9,0.9-12.4c0.6-3.4,1.6-6.1,3-8.2c1.4-2.1,3.3-3.6,5.6-4.5
			s5.2-1.4,8.7-1.4c3,0,5.5,0.4,7.6,1.1s3.8,1.9,5.1,3.2c1.3,1.4,2.3,3.1,2.9,5.1c0.6,2,0.9,4.2,0.9,6.7V47h-12.9v-2.9
			C421.6,41.2,421.3,39.2,420.7,38.2z"/>
		<path class="st0" d="M436.5,39.9V28.6h33.2v11.3h-10v39.8h-13.3V39.9H436.5z"/>
		<path class="st0" d="M472.1,41.9c0.6-3.4,1.6-6.1,3.1-8.2c1.4-2.1,3.3-3.7,5.6-4.6s5.2-1.5,8.6-1.5c3.4,0,6.2,0.5,8.6,1.5
			c2.3,1,4.2,2.5,5.6,4.6s2.5,4.9,3.1,8.2c0.6,3.4,0.9,7.4,0.9,12.2s-0.3,8.8-0.9,12.2c-0.6,3.4-1.6,6.1-3.1,8.2
			c-1.4,2.1-3.3,3.6-5.6,4.5c-2.3,0.9-5.2,1.4-8.6,1.4c-3.4,0-6.2-0.4-8.6-1.4c-2.3-0.9-4.2-2.4-5.6-4.5s-2.5-4.9-3.1-8.2
			c-0.6-3.4-0.9-7.4-0.9-12.2C471.2,49.4,471.5,45.3,472.1,41.9z M485,62.7c0.1,2.3,0.3,4.1,0.6,5.4c0.3,1.3,0.8,2.3,1.4,2.8
			c0.6,0.5,1.4,0.8,2.4,0.8c1,0,1.8-0.3,2.4-0.8c0.6-0.5,1-1.4,1.4-2.8c0.3-1.3,0.5-3.1,0.6-5.4c0.1-2.3,0.1-5.1,0.1-8.5
			s0-6.3-0.1-8.5c-0.1-2.3-0.3-4.1-0.6-5.4c-0.3-1.3-0.8-2.3-1.4-2.8c-0.6-0.5-1.4-0.8-2.4-0.8c-1,0-1.8,0.3-2.4,0.8
			c-0.6,0.5-1,1.5-1.4,2.8c-0.3,1.3-0.5,3.1-0.6,5.4c-0.1,2.3-0.1,5.1-0.1,8.5S485,60.4,485,62.7z"/>
		<path class="st0" d="M533.3,28.6c2.5,0,4.7,0.3,6.5,1c1.8,0.7,3.2,1.6,4.4,2.8c1.1,1.2,1.9,2.7,2.4,4.3c0.5,1.7,0.8,3.5,0.8,5.4
			c0,3.4-0.7,6.2-2.1,8.3s-3.6,3.4-6.7,3.9v0.1c3.2,0.3,5.4,1.4,6.6,3.4c1.2,2,1.8,4.7,1.8,8.1v4.4c0,0.7,0,1.4,0,2.1s0,1.4,0.1,2
			s0.1,1.2,0.2,1.8c0.1,0.5,0.2,0.9,0.4,1.2c0.2,0.3,0.4,0.6,0.6,0.8s0.5,0.5,0.9,0.8v0.7h-14.2c-0.3-0.7-0.6-1.4-0.8-2.4
			s-0.3-1.8-0.4-2.7s-0.1-1.8-0.1-2.6s0-1.5,0-2v-3.4c0-1.4-0.1-2.6-0.2-3.6c-0.1-1-0.4-1.7-0.8-2.2s-0.8-0.9-1.4-1.1
			s-1.2-0.3-2-0.3h-3.5v20.5h-13.3V28.6H533.3z M528.4,50.2c1.9,0,3.3-0.6,4.2-1.7s1.4-2.6,1.4-4.4c0-2.2-0.4-3.7-1.3-4.6
			c-0.9-0.9-2.3-1.4-4.3-1.4h-2.6v12H528.4z"/>
	</g>
	<g>
		<path class="st0" d="M178.7,124.6c0.9,1.8,2,3.2,3.5,4.2c1.5,1.1,3.2,1.8,5.3,2.2c2,0.4,4.2,0.7,6.5,0.7c1.3,0,2.8-0.2,4.3-0.6
			s3-1,4.3-1.8s2.5-1.9,3.4-3.2s1.3-2.9,1.3-4.8c0-1.4-0.3-2.7-0.9-3.7c-0.6-1.1-1.5-1.9-2.5-2.7s-2.1-1.3-3.4-1.8s-2.4-0.8-3.6-1.1
			l-11.2-2.8c-1.5-0.4-2.9-0.9-4.3-1.4s-2.6-1.3-3.6-2.3c-1-0.9-1.9-2.1-2.5-3.5c-0.6-1.4-0.9-3.1-0.9-5.1c0-1.2,0.2-2.7,0.7-4.4
			c0.5-1.7,1.4-3.2,2.6-4.7c1.3-1.5,3.1-2.7,5.3-3.8c2.3-1,5.1-1.5,8.7-1.5c2.5,0,4.9,0.3,7.1,1c2.3,0.7,4.2,1.7,5.9,3
			c1.7,1.3,3,3,4.1,5c1,2,1.5,4.3,1.5,6.9h-4.8c-0.1-1.9-0.5-3.7-1.3-5.1c-0.8-1.4-1.8-2.7-3-3.7c-1.2-1-2.7-1.7-4.3-2.2
			c-1.6-0.5-3.3-0.8-5.1-0.8c-1.6,0-3.2,0.2-4.8,0.5s-2.9,0.9-4,1.7c-1.1,0.8-2.1,1.8-2.8,3.1c-0.7,1.3-1.1,2.9-1.1,4.8
			c0,1.2,0.2,2.2,0.6,3.1c0.4,0.9,0.9,1.6,1.7,2.2s1.5,1.1,2.4,1.5c0.9,0.4,1.9,0.7,2.9,0.9l12.3,3.1c1.8,0.5,3.5,1.1,5,1.8
			c1.6,0.7,3,1.6,4.2,2.6s2.1,2.3,2.8,3.8c0.7,1.5,1,3.3,1,5.4c0,0.6-0.1,1.3-0.2,2.3c-0.1,0.9-0.4,2-0.9,3
			c-0.4,1.1-1.1,2.2-1.9,3.2c-0.8,1.1-1.9,2.1-3.4,3s-3.2,1.6-5.3,2.1c-2.1,0.6-4.7,0.8-7.6,0.8c-3,0-5.7-0.4-8.2-1
			c-2.5-0.7-4.7-1.8-6.5-3.2c-1.8-1.4-3.2-3.3-4.1-5.5c-1-2.2-1.4-4.9-1.2-8.1h4.8C177.4,120.7,177.9,122.8,178.7,124.6z"/>
		<path class="st0" d="M218.5,99.2c1-3.2,2.5-6,4.4-8.5c2-2.5,4.5-4.4,7.4-5.9c3-1.4,6.4-2.2,10.4-2.2s7.4,0.7,10.4,2.2
			c3,1.5,5.4,3.4,7.4,5.9c2,2.5,3.5,5.3,4.4,8.5c1,3.2,1.5,6.6,1.5,10.1s-0.5,6.9-1.5,10.1c-1,3.2-2.5,6-4.4,8.4
			c-2,2.4-4.4,4.4-7.4,5.8c-3,1.4-6.4,2.2-10.4,2.2s-7.4-0.7-10.4-2.2c-3-1.4-5.5-3.4-7.4-5.8s-3.5-5.2-4.4-8.4
			c-1-3.2-1.5-6.6-1.5-10.1C217,105.8,217.5,102.4,218.5,99.2z M222.9,117.5c0.7,2.7,1.9,5.1,3.4,7.2s3.5,3.8,5.9,5.1
			c2.4,1.3,5.3,1.9,8.6,1.9s6.2-0.6,8.6-1.9c2.4-1.3,4.3-3,5.9-5.1c1.5-2.1,2.7-4.5,3.4-7.2s1.1-5.4,1.1-8.2c0-2.8-0.4-5.6-1.1-8.2
			c-0.7-2.7-1.9-5.1-3.4-7.2c-1.5-2.1-3.5-3.8-5.9-5.1c-2.4-1.3-5.2-1.9-8.6-1.9s-6.2,0.6-8.6,1.9s-4.4,3-5.9,5.1s-2.7,4.5-3.4,7.2
			c-0.7,2.7-1.1,5.4-1.1,8.2C221.8,112.1,222.2,114.8,222.9,117.5z"/>
		<path class="st0" d="M276.7,83.8v46.9h28.2v4.1h-33V83.8H276.7z"/>
		<path class="st0" d="M314.1,83.8v31.6c0,3,0.3,5.5,1,7.6c0.7,2.1,1.6,3.8,2.9,5.1c1.3,1.3,2.8,2.3,4.7,2.9
			c1.8,0.6,3.9,0.9,6.2,0.9c2.4,0,4.4-0.3,6.3-0.9c1.8-0.6,3.4-1.6,4.7-2.9s2.2-3,2.9-5.1c0.7-2.1,1-4.6,1-7.6V83.8h4.8v32.7
			c0,2.6-0.4,5.1-1.1,7.5c-0.7,2.4-1.9,4.4-3.5,6.2c-1.6,1.8-3.6,3.2-6.1,4.2s-5.5,1.5-9,1.5c-3.5,0-6.5-0.5-8.9-1.5
			s-4.5-2.4-6.1-4.2c-1.6-1.8-2.7-3.8-3.5-6.2c-0.7-2.4-1.1-4.8-1.1-7.5V83.8H314.1z"/>
		<path class="st0" d="M392.6,83.8v4.2h-17.6v46.9h-4.8V87.9h-17.5v-4.2H392.6z"/>
		<path class="st0" d="M402.5,83.8v51.1h-4.8V83.8H402.5z"/>
		<path class="st0" d="M411.8,99.2c1-3.2,2.5-6,4.4-8.5c2-2.5,4.5-4.4,7.4-5.9c3-1.4,6.5-2.2,10.4-2.2s7.4,0.7,10.4,2.2
			c3,1.5,5.4,3.4,7.4,5.9s3.5,5.3,4.4,8.5c1,3.2,1.5,6.6,1.5,10.1s-0.5,6.9-1.5,10.1c-1,3.2-2.5,6-4.4,8.4c-2,2.4-4.4,4.4-7.4,5.8
			s-6.4,2.2-10.4,2.2s-7.4-0.7-10.4-2.2s-5.5-3.4-7.4-5.8c-2-2.4-3.5-5.2-4.4-8.4c-1-3.2-1.5-6.6-1.5-10.1S410.8,102.4,411.8,99.2z
			 M416.2,117.5c0.7,2.7,1.9,5.1,3.4,7.2c1.5,2.1,3.5,3.8,5.9,5.1s5.3,1.9,8.6,1.9s6.2-0.6,8.6-1.9s4.3-3,5.9-5.1
			c1.5-2.1,2.7-4.5,3.4-7.2s1.1-5.4,1.1-8.2c0-2.8-0.4-5.6-1.1-8.2c-0.7-2.7-1.9-5.1-3.4-7.2c-1.5-2.1-3.5-3.8-5.9-5.1
			c-2.4-1.3-5.2-1.9-8.6-1.9s-6.2,0.6-8.6,1.9s-4.4,3-5.9,5.1c-1.5,2.1-2.7,4.5-3.4,7.2c-0.7,2.7-1.1,5.4-1.1,8.2
			C415.1,112.1,415.5,114.8,416.2,117.5z"/>
		<path class="st0" d="M470.6,83.8l29.3,43.2h0.1V83.8h4.8v51.1h-5.4l-29.3-43.2H470v43.2h-4.8V83.8H470.6z"/>
		<path class="st0" d="M518.4,124.6c0.8,1.8,2,3.2,3.5,4.2s3.2,1.8,5.2,2.2s4.2,0.7,6.5,0.7c1.3,0,2.8-0.2,4.3-0.6s3-1,4.3-1.8
			s2.5-1.9,3.3-3.2c0.9-1.3,1.3-2.9,1.3-4.8c0-1.4-0.3-2.7-1-3.7s-1.5-1.9-2.5-2.7c-1-0.7-2.1-1.3-3.3-1.8s-2.4-0.8-3.6-1.1
			l-11.2-2.8c-1.5-0.4-2.9-0.9-4.3-1.4s-2.6-1.3-3.6-2.3c-1-0.9-1.9-2.1-2.5-3.5c-0.6-1.4-1-3.1-1-5.1c0-1.2,0.2-2.7,0.7-4.4
			c0.5-1.7,1.3-3.2,2.6-4.7c1.3-1.5,3.1-2.7,5.3-3.8c2.3-1,5.2-1.5,8.7-1.5c2.5,0,4.9,0.3,7.1,1c2.3,0.7,4.2,1.7,5.9,3
			c1.7,1.3,3,3,4.1,5c1,2,1.5,4.3,1.5,6.9h-4.8c-0.1-1.9-0.5-3.7-1.3-5.1c-0.8-1.4-1.8-2.7-3-3.7c-1.2-1-2.7-1.7-4.3-2.2
			s-3.3-0.8-5.1-0.8c-1.7,0-3.2,0.2-4.8,0.5s-2.9,0.9-4,1.7s-2.1,1.8-2.8,3.1c-0.7,1.3-1.1,2.9-1.1,4.8c0,1.2,0.2,2.2,0.6,3.1
			c0.4,0.9,1,1.6,1.7,2.2c0.7,0.6,1.5,1.1,2.4,1.5c0.9,0.4,1.9,0.7,2.9,0.9l12.3,3.1c1.8,0.5,3.5,1.1,5,1.8c1.6,0.7,3,1.6,4.2,2.6
			c1.2,1,2.1,2.3,2.8,3.8s1,3.3,1,5.4c0,0.6-0.1,1.3-0.2,2.3c-0.1,0.9-0.4,2-0.8,3c-0.5,1.1-1.1,2.2-1.9,3.2c-0.8,1.1-2,2.1-3.4,3
			c-1.4,0.9-3.2,1.6-5.3,2.1c-2.1,0.6-4.7,0.8-7.6,0.8s-5.7-0.4-8.2-1c-2.5-0.7-4.7-1.8-6.5-3.2s-3.2-3.3-4.1-5.5
			c-1-2.2-1.4-4.9-1.2-8.1h4.8C517.2,120.7,517.5,122.8,518.4,124.6z"/>
	</g>
</g>
</svg>
