<svg id="Layer_1" data-name="Layer 1" xmlns="http://www.w3.org/2000/svg" viewBox="0 0 40.86 50.26"><defs><style>.cls-1{fill:#6abf4b;}.cls-2{fill:#c31c4a;}.cls-3{fill:#1e1f1d;}</style></defs><title>RGB RPi Logos</title><path d="M10.82,0A1.41,1.41,0,0,0,10,.35a2,2,0,0,0-2.19.2C6.74.42,6.41.69,6.15,1c-.23,0-1.7-.23-2.37.76-1.7-.2-2.23,1-1.63,2.08a1.44,1.44,0,0,0,.11,2.06c-.29.56-.11,1.17.56,1.9a1.63,1.63,0,0,0,.8,1.78c-.11,1.08,1,1.71,1.34,1.93.13.63.4,1.22,1.68,1.55.21.94,1,1.1,1.73,1.29-2.47,1.42-4.58,3.27-4.56,7.83l-.37.63A7.66,7.66,0,0,0,2.05,34.38a22.24,22.24,0,0,0,1.08,3.47A8.51,8.51,0,0,0,8.5,44.61a18.07,18.07,0,0,0,5.13,2.87,8.51,8.51,0,0,0,6.3,2.78.34.34,0,0,0,.1,0,8.51,8.51,0,0,0,6.3-2.78,18.07,18.07,0,0,0,5.13-2.87,8.51,8.51,0,0,0,5.37-6.76,22.24,22.24,0,0,0,1.08-3.47,7.66,7.66,0,0,0-1.39-11.56l-.37-.63c0-4.56-2.09-6.41-4.56-7.83.75-.19,1.52-.35,1.73-1.29,1.28-.33,1.55-.92,1.68-1.55.33-.22,1.45-.85,1.34-1.93a1.63,1.63,0,0,0,.8-1.78c.67-.73.85-1.34.56-1.9a1.44,1.44,0,0,0,.11-2.06c.6-1.1.07-2.28-1.63-2.08C35.51.78,34,1,33.81,1c-.26-.32-.59-.59-1.63-.46A2,2,0,0,0,30,.35c-.91-.72-1.52-.14-2.21.07-1.11-.36-1.37.13-1.91.33-1.21-.25-1.58.3-2.16.88H23A7.57,7.57,0,0,0,20,5.94a7.57,7.57,0,0,0-3.05-4.32h-.68C15.67,1.05,15.3.5,14.09.75c-.54-.2-.8-.69-1.91-.33A4.38,4.38,0,0,0,10.82,0Z"/><path class="cls-1" d="M7.22,4.66c4.84,2.46,7.66,4.45,9.2,6.15C15.63,13.93,11.51,14.07,10,14a1.12,1.12,0,0,0,.66-.57c-.38-.26-1.72,0-2.66-.54a.92.92,0,0,0,.7-.41,7.81,7.81,0,0,1-2.4-1,1.33,1.33,0,0,0,1-.2A9,9,0,0,1,5,9.88c.41,0,.85,0,1-.15A8.68,8.68,0,0,1,4.12,8.26c.58.07.82,0,1-.09a7.19,7.19,0,0,1-1.57-1.7,1.15,1.15,0,0,0,1.09,0c-.19-.41-1-.65-1.44-1.62.45,0,.92.1,1,0A4.76,4.76,0,0,0,3.26,3,15.78,15.78,0,0,0,5.61,3L5,2.37a4.81,4.81,0,0,1,2.6.25c.31-.24,0-.55-.39-.86a9.23,9.23,0,0,1,2.16.53c.35-.31-.22-.62-.5-.93a5.65,5.65,0,0,1,2.27.88c.38-.36,0-.66-.23-1a5.66,5.66,0,0,1,1.91,1.21c.17-.23.43-.39.11-.94a4.72,4.72,0,0,1,1.52,1.31c.41-.26.25-.61.25-.93a15.4,15.4,0,0,1,1.65,1.7c.11-.07.2-.33.28-.75,1.63,1.56,3.94,5.49.59,7.05a31.73,31.73,0,0,0-10-5.26Z"/><path class="cls-1" d="M32.88,4.66C28,7.12,25.22,9.11,23.67,10.81c.79,3.12,4.92,3.26,6.42,3.17a1.13,1.13,0,0,1-.65-.57c.37-.26,1.72,0,2.65-.54a.88.88,0,0,1-.69-.41,7.74,7.74,0,0,0,2.39-1,1.34,1.34,0,0,1-1-.2,9,9,0,0,0,2.3-1.4c-.41,0-.85,0-1-.15A8.61,8.61,0,0,0,36,8.26c-.57.07-.81,0-.95-.09a7.19,7.19,0,0,0,1.57-1.7,1.15,1.15,0,0,1-1.09,0c.18-.41,1-.65,1.44-1.62-.45,0-.92.1-1,0A4.68,4.68,0,0,1,36.84,3,17.34,17.34,0,0,1,34.49,3l.59-.59a4.78,4.78,0,0,0-2.59.25c-.31-.24,0-.55.39-.86a9.2,9.2,0,0,0-2.17.53c-.34-.31.23-.62.51-.93A5.59,5.59,0,0,0,29,2.24c-.38-.36,0-.66.23-1a5.56,5.56,0,0,0-1.91,1.21c-.17-.23-.43-.39-.12-.94a4.81,4.81,0,0,0-1.52,1.31c-.4-.26-.24-.61-.24-.93a14.54,14.54,0,0,0-1.65,1.7c-.11-.07-.2-.33-.29-.75-1.63,1.56-3.93,5.49-.59,7.05a31.9,31.9,0,0,1,10-5.26Z"/><path class="cls-2" d="M25.91,36.43a5.56,5.56,0,0,1-5.78,5.3,5.57,5.57,0,0,1-5.83-5.25v0a5.55,5.55,0,0,1,5.77-5.3,5.57,5.57,0,0,1,5.84,5.24v.06"/><path class="cls-2" d="M16.86,21.37c2.4,1.55,2.84,5.07,1,7.86S12.49,33,10.09,31.47s-2.84-5.07-1-7.86,5.33-3.79,7.74-2.24"/><path class="cls-2" d="M23.35,21.09c-2.41,1.55-2.84,5.07-1,7.86s5.34,3.79,7.74,2.23,2.84-5.06,1-7.85-5.34-3.79-7.74-2.24"/><path class="cls-2" d="M5,23.93c2.6-.69.88,10.57-1.24,9.65A6,6,0,0,1,5,23.93"/><path class="cls-2" d="M35,23.78c-2.6-.68-.88,10.58,1.24,9.66A6,6,0,0,0,35,23.78"/><path class="cls-2" d="M26.28,15.38c4.48-.74,8.21,1.88,8.06,6.66-.15,1.84-9.71-6.39-8.06-6.66"/><path class="cls-2" d="M13.91,15.24c-4.49-.75-8.21,1.88-8.06,6.66.14,1.84,9.71-6.39,8.06-6.66"/><path class="cls-2" d="M20.08,14.12c-2.68-.06-5.24,2-5.25,3.13,0,1.43,2.12,2.89,5.27,2.93s5.27-1.17,5.28-2.64c0-1.67-2.93-3.44-5.3-3.42Z"/><path class="cls-2" d="M20.28,43.36c2.34-.1,5.46.74,5.47,1.86s-2.84,3.52-5.62,3.48c-2.88.12-5.71-2.33-5.67-3.18-.05-1.24,3.51-2.21,5.82-2.16"/><path class="cls-2" d="M11.66,36.76c1.66,2,2.41,5.43,1,6.45-1.31.78-4.5.46-6.76-2.74-1.52-2.69-1.33-5.42-.25-6.22,1.6-1,4.07.33,6,2.51"/><path class="cls-2" d="M28.37,36.14c-1.8,2.07-2.8,5.85-1.49,7.07,1.25.94,4.62.81,7.1-2.59,1.8-2.28,1.2-6.08.17-7.09-1.53-1.17-3.73.32-5.78,2.61Z"/><path class="cls-3" d="M37.29,12A2.66,2.66,0,1,0,40,14.61,2.66,2.66,0,0,0,37.29,12m0,4.88a2.22,2.22,0,1,1,2.22-2.22,2.21,2.21,0,0,1-2.22,2.22"/><path class="cls-3" d="M36.17,13.16h1.54a.78.78,0,0,1,.83.78.71.71,0,0,1-.45.71h0c.3.08.39.38.41.67a1.56,1.56,0,0,0,.12.67H38a2.85,2.85,0,0,1-.1-.68c0-.3-.16-.43-.48-.43H36.8V16h-.63Zm.63,1.28h.68c.28,0,.43-.12.43-.41s-.15-.39-.43-.39H36.8Z"/></svg>